<mxfile host="65bd71144e">
    <diagram id="q9nuoVIa_Y6YWtDo-JO6" name="Page-1">
        <mxGraphModel dx="1203" dy="807" grid="1" gridSize="10" guides="1" tooltips="1" connect="1" arrows="1" fold="1" page="1" pageScale="1" pageWidth="2336" pageHeight="1654" math="0" shadow="0">
            <root>
                <mxCell id="0"/>
                <mxCell id="1" parent="0"/>
                <mxCell id="4" value="" style="edgeStyle=none;html=1;shape=link;" edge="1" parent="1">
                    <mxGeometry relative="1" as="geometry">
                        <mxPoint x="260" y="240" as="sourcePoint"/>
                        <mxPoint x="260" y="330" as="targetPoint"/>
                    </mxGeometry>
                </mxCell>
                <mxCell id="11" value="" style="edgeStyle=none;html=1;" edge="1" parent="1" source="5" target="10">
                    <mxGeometry relative="1" as="geometry"/>
                </mxCell>
                <mxCell id="5" value="mlx_init, check_argv" style="ellipse;whiteSpace=wrap;html=1;" vertex="1" parent="1">
                    <mxGeometry x="200" y="160" width="120" height="80" as="geometry"/>
                </mxCell>
                <mxCell id="7" value="mlx_init" style="rounded=0;whiteSpace=wrap;html=1;" vertex="1" parent="1">
                    <mxGeometry x="200" y="330" width="120" height="60" as="geometry"/>
                </mxCell>
                <mxCell id="8" value="param, param.map 할당" style="rounded=0;whiteSpace=wrap;html=1;" vertex="1" parent="1">
                    <mxGeometry x="200" y="400" width="120" height="60" as="geometry"/>
                </mxCell>
                <mxCell id="9" value="check_argv&lt;br&gt;" style="rounded=0;whiteSpace=wrap;html=1;fillColor=#bac8d3;strokeColor=#23445d;" vertex="1" parent="1">
                    <mxGeometry x="200" y="470" width="120" height="60" as="geometry"/>
                </mxCell>
                <mxCell id="10" value="" style="ellipse;whiteSpace=wrap;html=1;" vertex="1" parent="1">
                    <mxGeometry x="500" y="170" width="120" height="60" as="geometry"/>
                </mxCell>
                <mxCell id="14" value="check_argv : 파일명, 맵 체크&lt;br&gt;&lt;ul&gt;&lt;li&gt;파일명 : 마지막에 .ber 체크&lt;/li&gt;&lt;li&gt;맵 읽기&lt;br&gt;1. gnl로 맵 한번 쭉 읽으면서 row 세기 -&amp;gt; param.game.n_row&lt;br&gt;2. param.map 할당&lt;br&gt;3. 다시 gnl로 map 읽으면서 (read_map()) param.game.map에 값 저장&lt;br&gt;&lt;/li&gt;&lt;li&gt;맵 체크&lt;br&gt;1. 첫 줄 읽으면서 col 세기 -&amp;gt; param.game.n_col 값 저장&lt;br&gt;이때 &quot;1&quot;이 아닌 값이 있다면 바로 에러 리턴&lt;br&gt;2. flag(c, e, p) 값 0으로 초기화&lt;br&gt;3. 두번째 행부터 반복문 돌면서 flag_c,e,p 카운트&lt;br&gt;flag 또는 &quot;1,&amp;nbsp; 0&quot; 이 다섯가지가 아닐 경우 에러 리턴&lt;br&gt;이때 0열과 마지막열이 &quot;1&quot;인지 체크 + param.game.n_col값과 최종값 체크&lt;br&gt;마지막행은 벽인지도 체크&lt;br&gt;&lt;/li&gt;&lt;li&gt;4. flag_c == 0 || flag_e==0 || flag_p != 1 일 경우 에러 리턴&lt;br&gt;5. game.collection = flag_c&lt;/li&gt;&lt;/ul&gt;" style="text;html=1;strokeColor=none;fillColor=none;align=left;verticalAlign=middle;whiteSpace=wrap;rounded=0;" vertex="1" parent="1">
                    <mxGeometry x="200" y="680" width="520" height="160" as="geometry"/>
                </mxCell>
            </root>
        </mxGraphModel>
    </diagram>
</mxfile>